<?xml version="1.0" encoding="iso-8859-1"?>
<!-- Uploaded to: SVG Repo, www.svgrepo.com, Generator: SVG Repo Mixer Tools -->
<svg fill="#000000" height="800px" width="800px" version="1.1" id="Layer_1" xmlns="http://www.w3.org/2000/svg" xmlns:xlink="http://www.w3.org/1999/xlink" 
	 viewBox="0 0 512 512" xml:space="preserve">
<g>
	<g>
		<path d="M511.794,185.481c-0.474-8.496-7.262-15.275-15.759-15.738c-1.499-0.082-32.861-1.662-72.654,6.033
			c-7.92-38.789-21.218-66.657-22.302-68.885c-3.697-7.604-12.493-11.242-20.484-8.473c-1.44,0.5-31.606,11.102-65.812,33.715
			c-22.472-33.22-45.845-54.202-47.721-55.861c-6.315-5.588-15.807-5.588-22.122,0c-1.866,1.652-25.032,22.446-47.407,55.399
			c-33.922-22.298-63.689-32.76-65.111-33.253c-7.991-2.772-16.787,0.869-20.484,8.473c-1.085,2.231-14.426,30.188-22.341,69.075
			c-40.251-7.911-72.111-6.306-73.629-6.224c-8.497,0.463-15.285,7.242-15.759,15.738c-0.273,4.875-5.856,120.191,64.677,189.876
			c89.34,88.266,297.341,83.873,382.233,0C517.65,305.672,512.066,190.356,511.794,185.481z M88.35,351.605
			C42.609,306.414,34.755,234.65,33.606,203.098c12.255,0.405,30.574,1.791,51.157,5.953c-2.663,30.832-0.275,65.156,13.401,97.773
			c16.348,38.994,45.854,68.429,74.608,89.474C143.72,388.727,112.339,375.306,88.35,351.605z M128.954,293.913
			c-24.778-59.101-4.13-128.484,7.019-157.985c11.039,4.953,27.208,13.029,44.339,24.39c-14.403,27.474-25.493,60.09-25.493,95.4
			c0,42.33,15.939,80.784,34.418,111.154C165.492,348.955,141.9,324.793,128.954,293.913z M255.98,399.176
			c-21.72-22.938-67.773-79.163-67.773-143.458c0-64.078,46.112-120.47,67.814-143.458c10.224,10.797,25.837,28.97,39.502,51.886
			c0.103,0.18,0.207,0.361,0.318,0.538c15.226,25.675,27.953,57.238,27.953,91.035C323.794,319.796,277.683,376.188,255.98,399.176z
			 M357.183,255.717c0-35.096-10.957-67.527-25.233-94.897c17.411-11.625,33.895-19.868,45.091-24.892
			c11.154,29.517,31.794,98.893,7.021,157.985c-13.224,31.542-37.685,56.123-62.044,74.185
			C340.812,337.541,357.183,298.618,357.183,255.717z M423.651,351.605c-23.552,23.268-54.226,36.624-82.826,44.268
			c28.569-21.016,57.789-50.319,74.027-89.049c13.704-32.686,16.075-67.087,13.384-97.971c20.128-3.988,38.102-5.333,50.188-5.738
			C477.328,234.638,469.554,306.254,423.651,351.605z"/>
	</g>
</g>
</svg>