<?xml version="1.0" encoding="utf-8"?>
<!-- Generator: Adobe Illustrator 16.0.0, SVG Export Plug-In . SVG Version: 6.00 Build 0)  -->
<!DOCTYPE svg PUBLIC "-//W3C//DTD SVG 1.1//EN" "http://www.w3.org/Graphics/SVG/1.1/DTD/svg11.dtd">
<svg version="1.1" id="Layer_1" xmlns="http://www.w3.org/2000/svg" xmlns:xlink="http://www.w3.org/1999/xlink" x="0px" y="0px"
	 width="58.425px" height="10.127px" viewBox="0 0 58.425 10.127" enable-background="new 0 0 58.425 10.127" xml:space="preserve">
<path d="M8.96,2.925H8.139L8.052,2.319C7.984,1.849,7.884,1.532,7.75,1.368C7.615,1.205,7.375,1.124,7.029,1.124H5.271v7.447
	c0,0.144,0.029,0.242,0.087,0.295S5.531,8.95,5.704,8.96l0.95,0.086v0.894H2.319V9.046L3.255,8.96
	c0.183-0.02,0.301-0.053,0.354-0.101s0.079-0.145,0.079-0.288V1.124H1.93c-0.346,0-0.586,0.081-0.72,0.244
	c-0.135,0.164-0.235,0.48-0.303,0.951L0.821,2.925H0V0h8.96V2.925z"/>
<path d="M17.43,3.572V8.7c0,0.115,0.021,0.195,0.064,0.238s0.132,0.074,0.267,0.094l0.591,0.086v0.821h-3.256V9.118l0.576-0.086
	c0.144-0.02,0.235-0.051,0.273-0.094s0.058-0.123,0.058-0.238V6.497h-3.73V8.7c0,0.115,0.021,0.195,0.064,0.238
	s0.132,0.074,0.267,0.094l0.591,0.086v0.821H9.938V9.118l0.576-0.086c0.145-0.02,0.235-0.051,0.274-0.094
	c0.038-0.043,0.058-0.123,0.058-0.238V3.572c0-0.124-0.02-0.209-0.058-0.252c-0.039-0.043-0.13-0.074-0.274-0.094L9.938,3.141V2.319
	h3.256v0.821l-0.591,0.086c-0.135,0.02-0.224,0.051-0.267,0.094s-0.064,0.128-0.064,0.252v1.931h3.73V3.572
	c0-0.124-0.02-0.209-0.058-0.252s-0.13-0.074-0.273-0.094l-0.576-0.086V2.319h3.256v0.821l-0.591,0.086
	c-0.135,0.02-0.224,0.051-0.267,0.094S17.43,3.448,17.43,3.572z"/>
<path d="M26.923,9.032l0.576,0.086v0.821h-3.414V9.118l0.59-0.086c0.183-0.029,0.274-0.082,0.274-0.159
	c0-0.009-0.01-0.062-0.029-0.158l-0.432-1.268h-2.723L21.578,7.98c-0.163,0.471-0.245,0.754-0.245,0.85
	c0,0.097,0.082,0.164,0.245,0.202l0.706,0.071v0.836h-3.169V9.104l0.691-0.071c0.173-0.029,0.303-0.102,0.389-0.217
	c0.087-0.115,0.206-0.394,0.36-0.835l2.074-5.704h1.513l2.333,6.438c0.048,0.115,0.099,0.192,0.151,0.23
	C26.68,8.984,26.778,9.013,26.923,9.032z M22.068,6.583h2.117l-1.052-3.039L22.068,6.583z"/>
<path d="M28.275,9.939V9.118l0.576-0.086c0.145-0.02,0.235-0.051,0.274-0.094c0.038-0.043,0.058-0.123,0.058-0.238V3.572
	c0-0.124-0.02-0.209-0.058-0.252c-0.039-0.043-0.13-0.074-0.274-0.094l-0.576-0.086V2.319h3.256v0.821L30.94,3.227
	c-0.135,0.02-0.224,0.051-0.267,0.094s-0.064,0.128-0.064,0.252V8.7c0,0.115,0.021,0.195,0.064,0.238s0.132,0.074,0.267,0.094
	l0.591,0.086v0.821H28.275z"/>
<path d="M40.534,1.829l-2.146,2.233l3.933,5.546c-0.337,0.346-0.711,0.519-1.124,0.519c-0.269,0-0.492-0.077-0.67-0.23
	s-0.42-0.456-0.728-0.908l-2.506-3.803l-1.801,1.858v1.527c0,0.144,0.023,0.242,0.072,0.295c0.048,0.053,0.158,0.084,0.331,0.094
	l0.879,0.086v0.894H32.77V9.046l0.778-0.086c0.144-0.01,0.239-0.041,0.288-0.094c0.048-0.053,0.071-0.151,0.071-0.295V1.368
	c0-0.144-0.023-0.242-0.071-0.295c-0.049-0.053-0.145-0.084-0.288-0.094L32.77,0.894V0h3.86v0.894l-0.777,0.086
	c-0.145,0.01-0.24,0.041-0.288,0.094c-0.049,0.053-0.072,0.151-0.072,0.295v4.438l3.702-3.962l0.201-0.216
	c0.278-0.278,0.418-0.456,0.418-0.533c0-0.066-0.077-0.105-0.23-0.115l-0.864-0.086V0h3.817v0.894l-0.734,0.086
	c-0.222,0.039-0.409,0.11-0.563,0.216C41.066,1.302,40.831,1.513,40.534,1.829z"/>
<path d="M49.119,7.808h0.749v2.132H43.17V9.118l0.576-0.086c0.145-0.02,0.235-0.051,0.274-0.094
	c0.038-0.043,0.058-0.123,0.058-0.238V3.572c0-0.124-0.02-0.209-0.058-0.252c-0.039-0.043-0.13-0.074-0.274-0.094L43.17,3.141V2.319
	h6.482v2.031h-0.706c-0.135-0.441-0.285-0.744-0.453-0.907c-0.169-0.164-0.469-0.245-0.9-0.245h-2.089v2.463h1.526
	c0.288,0,0.5-0.051,0.634-0.151c0.135-0.101,0.23-0.29,0.288-0.568h0.634v2.376h-0.634c-0.076-0.326-0.185-0.545-0.323-0.655
	c-0.14-0.11-0.368-0.165-0.685-0.165h-1.44v2.563h2.262c0.432,0,0.739-0.086,0.922-0.259C48.869,8.629,49.014,8.297,49.119,7.808z"
	/>
<path d="M58.425,2.319v0.836l-0.677,0.071c-0.173,0.039-0.319,0.118-0.439,0.238s-0.295,0.357-0.525,0.713l-1.585,2.563V8.7
	c0,0.115,0.02,0.195,0.058,0.238s0.13,0.074,0.273,0.094l0.576,0.086v0.821h-3.284V9.118l0.591-0.086
	c0.145-0.02,0.235-0.048,0.273-0.087c0.039-0.038,0.058-0.12,0.058-0.245V7.059l-2.103-3.529c-0.058-0.105-0.115-0.178-0.173-0.216
	s-0.158-0.067-0.303-0.087l-0.576-0.086V2.319h3.457v0.821l-0.591,0.086c-0.163,0.02-0.244,0.058-0.244,0.115
	c0,0.01,0.023,0.072,0.071,0.188l1.383,2.392l1.023-1.743c0.278-0.48,0.417-0.754,0.417-0.821c0-0.058-0.066-0.101-0.201-0.13
	l-0.721-0.071V2.319H58.425z"/>
</svg>
